<?xml version="1.0" encoding="UTF-8"?>
<svg xmlns="http://www.w3.org/2000/svg" viewBox="0 0 1200 630" width="1200" height="630">
  <defs>
    <linearGradient id="bg" x1="0" y1="0" x2="1" y2="1">
      <stop offset="0" stop-color="#0a1628"/>
      <stop offset="1" stop-color="#112240"/>
    </linearGradient>
    <linearGradient id="accent" x1="0" y1="0" x2="1" y2="0">
      <stop offset="0" stop-color="#016a3e"/>
      <stop offset="1" stop-color="#4FA3D9"/>
    </linearGradient>
  </defs>
  <rect width="1200" height="630" fill="url(#bg)"/>
  <!-- subtle grid -->
  <g stroke="rgba(255,255,255,0.05)" stroke-width="1">
    <line x1="0" y1="0" x2="0" y2="630"/>
    <line x1="48" y1="0" x2="48" y2="630"/>
    <line x1="96" y1="0" x2="96" y2="630"/>
    <line x1="144" y1="0" x2="144" y2="630"/>
    <line x1="192" y1="0" x2="192" y2="630"/>
    <line x1="240" y1="0" x2="240" y2="630"/>
    <line x1="288" y1="0" x2="288" y2="630"/>
    <line x1="336" y1="0" x2="336" y2="630"/>
    <line x1="384" y1="0" x2="384" y2="630"/>
    <line x1="432" y1="0" x2="432" y2="630"/>
    <line x1="480" y1="0" x2="480" y2="630"/>
    <line x1="528" y1="0" x2="528" y2="630"/>
    <line x1="576" y1="0" x2="576" y2="630"/>
    <line x1="624" y1="0" x2="624" y2="630"/>
    <line x1="672" y1="0" x2="672" y2="630"/>
    <line x1="720" y1="0" x2="720" y2="630"/>
    <line x1="768" y1="0" x2="768" y2="630"/>
    <line x1="816" y1="0" x2="816" y2="630"/>
    <line x1="864" y1="0" x2="864" y2="630"/>
    <line x1="912" y1="0" x2="912" y2="630"/>
    <line x1="960" y1="0" x2="960" y2="630"/>
    <line x1="1008" y1="0" x2="1008" y2="630"/>
    <line x1="1056" y1="0" x2="1056" y2="630"/>
    <line x1="1104" y1="0" x2="1104" y2="630"/>
    <line x1="1152" y1="0" x2="1152" y2="630"/>
    <line x1="0" y1="0" x2="1200" y2="0"/>
    <line x1="0" y1="48" x2="1200" y2="48"/>
    <line x1="0" y1="96" x2="1200" y2="96"/>
    <line x1="0" y1="144" x2="1200" y2="144"/>
    <line x1="0" y1="192" x2="1200" y2="192"/>
    <line x1="0" y1="240" x2="1200" y2="240"/>
    <line x1="0" y1="288" x2="1200" y2="288"/>
    <line x1="0" y1="336" x2="1200" y2="336"/>
    <line x1="0" y1="384" x2="1200" y2="384"/>
    <line x1="0" y1="432" x2="1200" y2="432"/>
    <line x1="0" y1="480" x2="1200" y2="480"/>
    <line x1="0" y1="528" x2="1200" y2="528"/>
    <line x1="0" y1="576" x2="1200" y2="576"/>
    <line x1="0" y1="624" x2="1200" y2="624"/>
  </g>
  <!-- accent block -->
  <rect x="80" y="80" width="120" height="6" fill="url(#accent)"/>
  <!-- logo -->
  <rect x="80" y="120" width="56" height="56" rx="14" fill="#016a3e"/>
  <text x="108" y="159" font-family="Inter, system-ui, sans-serif" font-size="40" font-weight="800" text-anchor="middle" fill="#fff">M</text>
  <text x="152" y="142" font-family="Inter, system-ui, sans-serif" font-size="22" font-weight="700" fill="#fff">迈途数创 · Mito Aero</text>
  <text x="152" y="170" font-family="Inter, system-ui, sans-serif" font-size="14" font-weight="500" fill="rgba(255,255,255,0.6)">Airline commercial systems from China</text>
  <!-- big tagline -->
  <text x="80" y="380" font-family="Inter, system-ui, sans-serif" font-size="64" font-weight="800" fill="#fff">我们在招</text>
  <text x="80" y="450" font-family="Inter, system-ui, sans-serif" font-size="32" font-weight="500" fill="rgba(255,255,255,0.65)">We are hiring</text>
  <!-- chips -->
  <g transform="translate(80, 500)">
    <rect width="200" height="46" rx="23" fill="rgba(255,255,255,0.08)" stroke="rgba(255,255,255,0.18)"/>
    <text x="100" y="30" font-family="Inter, system-ui, sans-serif" font-size="18" fill="#fff" text-anchor="middle">10+ 航司</text>
  </g>
  <g transform="translate(300, 500)">
    <rect width="200" height="46" rx="23" fill="rgba(255,255,255,0.08)" stroke="rgba(255,255,255,0.18)"/>
    <text x="100" y="30" font-family="Inter, system-ui, sans-serif" font-size="18" fill="#fff" text-anchor="middle">6 大核心方案</text>
  </g>
  <g transform="translate(520, 500)">
    <rect width="240" height="46" rx="23" fill="rgba(255,255,255,0.08)" stroke="rgba(255,255,255,0.18)"/>
    <text x="120" y="30" font-family="Inter, system-ui, sans-serif" font-size="18" fill="#fff" text-anchor="middle">ISO 27001 + 等保</text>
  </g>
  <!-- bottom URL -->
  <text x="80" y="600" font-family="Inter, system-ui, sans-serif" font-size="14" font-weight="400" fill="rgba(255,255,255,0.5)">https://mito-aero.com/pages/careers.html</text>
</svg>
